<?xml version="1.0" standalone="no"?>
<!DOCTYPE svg PUBLIC "-//W3C//DTD SVG 20010904//EN"
 "http://www.w3.org/TR/2001/REC-SVG-20010904/DTD/svg10.dtd">
<svg version="1.0" xmlns="http://www.w3.org/2000/svg"
 width="1260.000000pt" height="1260.000000pt" viewBox="0 0 1260.000000 1260.000000"
 preserveAspectRatio="xMidYMid meet">
<metadata>
Created by potrace 1.14, written by Peter Selinger 2001-2017
</metadata>
<g transform="translate(0.000000,1260.000000) scale(0.100000,-0.100000)"
fill="#000000" stroke="none">
<path d="M7880 12005 l0 -205 -27 0 c-56 0 -218 -51 -306 -97 -105 -54 -220
-161 -275 -255 -75 -126 -108 -279 -99 -448 8 -130 27 -202 80 -305 94 -181
286 -324 587 -438 52 -20 144 -54 203 -76 200 -75 307 -152 359 -259 28 -57
34 -79 36 -154 9 -224 -118 -360 -364 -388 -319 -36 -521 119 -550 423 l-7 67
-225 0 -225 0 6 -107 c16 -295 172 -539 423 -662 75 -36 215 -79 290 -87 l54
-7 -1 -66 -1 -66 -160 -145 c-451 -407 -1023 -932 -1026 -940 -2 -6 182 -10
507 -10 l511 0 0 -32 c0 -67 -31 -386 -46 -473 -22 -132 -60 -284 -95 -388
-45 -133 -148 -337 -226 -447 -87 -121 -278 -313 -463 -464 -266 -217 -411
-354 -517 -490 l-23 -29 -22 29 c-68 89 -350 358 -369 352 -16 -5 -479 -430
-479 -439 0 -5 17 -24 38 -42 225 -192 354 -363 416 -552 58 -178 58 -183 63
-817 l5 -586 -269 -4 c-221 -4 -278 -8 -323 -23 -135 -43 -250 -124 -324 -228
-27 -39 -86 -161 -159 -331 -64 -148 -124 -277 -133 -288 -10 -10 -43 -33 -73
-50 -31 -18 -77 -54 -103 -80 -79 -81 -103 -144 -158 -419 -46 -224 -50 -256
-50 -384 0 -91 5 -159 15 -195 26 -98 82 -196 156 -273 l69 -72 0 -238 c0
-264 3 -281 63 -317 30 -18 52 -20 302 -20 250 0 272 2 302 20 63 38 68 55 71
250 l2 175 83 -3 c435 -18 1308 -18 1757 0 l85 3 5 -186 c7 -270 -8 -259 368
-259 263 0 270 0 303 23 57 38 59 49 59 312 l0 241 68 69 c74 77 132 177 157
271 10 39 15 105 15 199 0 129 -4 161 -50 385 -55 274 -79 337 -158 418 -26
26 -73 63 -104 81 -32 17 -66 45 -77 60 -11 15 -70 144 -132 287 -146 340
-199 414 -359 498 -123 65 -148 69 -442 74 l-268 4 0 524 c0 557 6 661 45 812
70 264 175 398 585 742 348 293 491 441 644 668 103 153 204 362 270 562 100
301 135 508 172 998 l6 72 516 0 517 0 -60 58 c-33 32 -260 240 -505 462 -727
662 -685 620 -688 667 l-3 41 63 7 c125 14 275 68 383 137 106 68 210 196 255
315 75 198 64 447 -27 633 -38 77 -61 109 -127 175 -127 127 -275 208 -586
323 -228 84 -298 121 -383 201 -105 98 -131 285 -62 440 62 136 195 201 391
188 145 -9 250 -79 313 -210 32 -65 61 -189 61 -257 l0 -40 224 0 c124 0 227
4 230 9 3 4 1 57 -4 117 -35 394 -257 663 -612 740 l-78 17 0 204 0 203 -155
0 -155 0 0 -205z m-1295 -9262 c-30 -79 -145 -410 -145 -420 0 -10 37 -13 165
-13 l165 0 6 -26 c5 -19 0 -32 -18 -52 -14 -15 -155 -171 -313 -347 -410 -456
-403 -449 -435 -410 -15 18 -20 -1 81 326 38 124 69 231 69 237 0 9 -45 12
-158 12 -163 0 -182 4 -182 42 0 10 137 164 306 343 l306 325 80 0 c72 0 79
-2 73 -17z"/>
<path d="M4362 11810 c-574 -73 -1041 -506 -1153 -1070 -32 -160 -32 -360 0
-520 108 -543 535 -958 1091 -1061 98 -18 358 -16 463 5 555 107 986 547 1078
1101 15 90 15 340 0 430 -18 111 -59 240 -107 343 -180 386 -533 667 -943 751
-119 25 -320 34 -429 21z m288 -400 l0 -130 -130 0 -130 0 0 130 0 130 130 0
130 0 0 -130z m0 -677 l0 -278 194 -195 194 -195 -89 -95 -89 -95 -235 235
-235 235 0 332 0 333 130 0 130 0 0 -277z m-930 -253 l0 -130 -130 0 -130 0 0
130 0 130 130 0 130 0 0 -130z m1860 0 l0 -130 -127 0 -128 0 2 127 c1 71 3
129 3 131 0 1 56 2 125 2 l125 0 0 -130z m-930 -930 l0 -130 -130 0 -130 0 0
123 c0 68 3 127 7 130 3 4 62 7 130 7 l123 0 0 -130z"/>
<path d="M3884 8413 l-689 -628 521 -3 521 -2 6 -153 c6 -146 26 -333 48 -465
l11 -63 32 6 c112 24 605 139 624 146 13 5 21 13 18 17 -5 9 -32 299 -39 430
l-5 82 510 0 c321 0 508 4 506 10 -3 8 -421 391 -1171 1074 -103 94 -192 172
-196 174 -5 1 -318 -280 -697 -625z"/>
<path d="M4990 6775 c-52 -13 -200 -47 -327 -76 -145 -33 -233 -58 -233 -65 0
-21 89 -224 135 -309 58 -108 147 -242 222 -336 87 -109 244 -270 259 -267 8
2 122 101 254 222 l240 219 -83 86 c-139 144 -250 306 -322 471 -19 41 -37 75
-42 77 -4 1 -51 -9 -103 -22z"/>
</g>
</svg>
