<svg width="221" height="315" viewBox="0 0 221 315" fill="none" xmlns="http://www.w3.org/2000/svg">
<path d="M91.3833 160.906L79.1556 172.053C72.0683 165.593 66.7827 157.679 63.7417 148.974L80.4472 145.128C83.2028 152.114 87.0778 156.903 91.3833 160.906ZM101.889 120.4L67.4444 89L33 120.4H59.0056C59.1778 126.759 59.6944 132.489 60.6417 137.435L77.3472 133.588C76.7444 129.82 76.3139 125.346 76.2278 120.4H101.889ZM188 120.4L153.556 89L119.111 120.4H144.858C143.997 149.288 133.836 157.688 122.986 166.558C118.681 170.012 114.289 173.78 110.5 178.726C107.572 174.879 104.214 171.818 100.769 168.992L88.6278 180.06C96.6361 186.733 101.889 192.149 101.889 206.75V246H119.111V206.75C119.111 190.893 125.225 185.869 134.525 178.255C146.408 168.521 161.047 156.432 162.081 120.4H188Z" fill="black"/>
<path d="M164.203 71.1875C164.203 69.875 163.984 68.6719 163.547 67.5781C163.141 66.4844 162.469 65.4844 161.531 64.5781C160.594 63.6406 159.375 62.7812 157.875 62C156.375 61.1875 154.547 60.4219 152.391 59.7031C149.328 58.7031 146.562 57.5938 144.094 56.375C141.625 55.125 139.516 53.6875 137.766 52.0625C136.016 50.4062 134.672 48.5 133.734 46.3438C132.797 44.1562 132.328 41.6094 132.328 38.7031C132.328 36.0781 132.75 33.6875 133.594 31.5312C134.438 29.3437 135.625 27.4531 137.156 25.8594C138.719 24.2344 140.594 22.9219 142.781 21.9219C145 20.9219 147.469 20.2656 150.188 19.9531V9.73438H157.688V20.0469C160.406 20.4219 162.828 21.1875 164.953 22.3438C167.109 23.4688 168.938 24.9531 170.438 26.7969C171.938 28.6406 173.078 30.8281 173.859 33.3594C174.672 35.8906 175.078 38.7344 175.078 41.8906H163.875C163.875 39.9219 163.641 38.1562 163.172 36.5938C162.703 35 162.031 33.6562 161.156 32.5625C160.281 31.4375 159.203 30.5781 157.922 29.9844C156.672 29.3906 155.234 29.0938 153.609 29.0938C151.859 29.0938 150.344 29.3281 149.062 29.7969C147.812 30.2656 146.781 30.9219 145.969 31.7656C145.156 32.5781 144.547 33.5781 144.141 34.7656C143.734 35.9219 143.531 37.2031 143.531 38.6094C143.531 39.9531 143.719 41.1562 144.094 42.2188C144.5 43.2812 145.172 44.2656 146.109 45.1719C147.047 46.0781 148.281 46.9375 149.812 47.75C151.344 48.5312 153.25 49.3125 155.531 50.0938C158.625 51.1562 161.391 52.3125 163.828 53.5625C166.297 54.7812 168.391 56.2188 170.109 57.875C171.828 59.5 173.141 61.3906 174.047 63.5469C174.953 65.7031 175.406 68.2188 175.406 71.0938C175.406 73.8438 174.969 76.3125 174.094 78.5C173.219 80.6562 171.969 82.5312 170.344 84.125C168.719 85.6875 166.75 86.9531 164.438 87.9219C162.125 88.8594 159.547 89.4688 156.703 89.75V98.8438H149.25V89.7969C146.719 89.5469 144.281 88.9688 141.938 88.0625C139.594 87.1562 137.516 85.8594 135.703 84.1719C133.891 82.4531 132.438 80.2969 131.344 77.7031C130.25 75.0781 129.703 71.9375 129.703 68.2812H140.906C140.906 70.7188 141.25 72.7344 141.938 74.3281C142.656 75.9219 143.578 77.2031 144.703 78.1719C145.828 79.1094 147.094 79.7812 148.5 80.1875C149.906 80.5625 151.328 80.75 152.766 80.75C156.453 80.75 159.281 79.8906 161.25 78.1719C163.219 76.4219 164.203 74.0938 164.203 71.1875Z" fill="black"/>
<path d="M74.5 68.1667L79.1667 63.4167L69.3333 53.5833V39.6667H62.6667V56.3333L74.5 68.1667ZM62.6667 33H69.3333V26.3333H62.6667V33ZM86 56.3333H92.6667V49.6667H86V56.3333ZM62.6667 79.6667H69.3333V73H62.6667V79.6667ZM39.3333 56.3333H46V49.6667H39.3333V56.3333ZM66 86.3333C61.3889 86.3333 57.0555 85.4578 53 83.7067C48.9444 81.9555 45.4167 79.5811 42.4167 76.5833C39.4167 73.5833 37.0422 70.0555 35.2933 66C33.5444 61.9444 32.6689 57.6111 32.6667 53C32.6667 48.3889 33.5422 44.0555 35.2933 40C37.0444 35.9444 39.4189 32.4167 42.4167 29.4167C45.4167 26.4167 48.9444 24.0422 53 22.2933C57.0555 20.5444 61.3889 19.6689 66 19.6667C70.6111 19.6667 74.9444 20.5422 79 22.2933C83.0555 24.0444 86.5833 26.4189 89.5833 29.4167C92.5833 32.4167 94.9589 35.9444 96.71 40C98.4611 44.0555 99.3355 48.3889 99.3333 53C99.3333 57.6111 98.4578 61.9444 96.7067 66C94.9555 70.0555 92.5811 73.5833 89.5833 76.5833C86.5833 79.5833 83.0555 81.9589 79 83.71C74.9444 85.4611 70.6111 86.3355 66 86.3333Z" fill="black"/>
<g clip-path="url(#clip0_4_9)">
<path d="M77.2775 239.31C78.447 236.582 80.3918 234.257 82.8706 232.624C85.3494 230.991 88.253 230.122 91.2212 230.125H129.791C135.853 230.125 141.334 233.738 143.722 239.31L148.524 250.513C148.979 251.574 149.797 252.447 150.828 252.962C153.859 254.478 156.011 257.297 156.678 260.613L158.709 270.792C158.909 271.768 159.006 272.763 159.006 273.763V276.267C159.006 281.202 156.642 285.621 152.944 288.373V299.844C152.944 300.648 152.624 301.419 152.056 301.987C151.487 302.556 150.716 302.875 149.912 302.875H137.787C136.983 302.875 136.212 302.556 135.644 301.987C135.075 301.419 134.756 300.648 134.756 299.844V291.732C126.923 292.023 118.114 292.266 110.506 292.266C102.898 292.266 94.0888 292.023 86.2561 291.732V299.844C86.2561 300.648 85.9367 301.419 85.3682 301.987C84.7998 302.556 84.0287 302.875 83.2248 302.875H71.0998C70.2959 302.875 69.5249 302.556 68.9564 301.987C68.3879 301.419 68.0686 300.648 68.0686 299.844V288.373C64.3704 285.621 62.0061 281.202 62.0061 276.267V273.763C62.0071 272.765 62.1066 271.77 62.3031 270.792L64.3341 260.607C65.0009 257.297 67.1531 254.472 70.1783 252.962C71.2137 252.445 72.0322 251.577 72.4881 250.513L77.2896 239.31H77.2775ZM118.199 242.402C117.978 242.272 117.719 242.222 117.466 242.26C117.213 242.297 116.979 242.42 116.805 242.608L98.6781 261.929C98.5273 262.091 98.427 262.294 98.3896 262.512C98.3521 262.73 98.3791 262.955 98.4672 263.158C98.5553 263.361 98.7007 263.535 98.8857 263.657C99.0707 263.778 99.2872 263.844 99.5087 263.845H107.032L102.952 277.152C102.876 277.398 102.886 277.663 102.979 277.903C103.073 278.143 103.245 278.344 103.467 278.473C103.922 278.734 104.498 278.655 104.862 278.267L122.322 258.946C122.473 258.784 122.573 258.581 122.61 258.363C122.648 258.145 122.621 257.92 122.533 257.717C122.445 257.514 122.299 257.34 122.114 257.218C121.929 257.097 121.713 257.031 121.491 257.03H113.968L118.709 243.723C118.785 243.477 118.775 243.212 118.682 242.972C118.588 242.732 118.416 242.531 118.193 242.402H118.199Z" fill="black"/>
</g>
<defs>
<clipPath id="clip0_4_9">
<rect width="97" height="97" fill="white" transform="translate(62 218)"/>
</clipPath>
</defs>
</svg>
